<svg width="28" height="28" fill="none" xmlns="http://www.w3.org/2000/svg"><g clip-path="url(#a)"><circle cx="14" cy="14" r="12" fill="#fff"/><mask id="b" maskUnits="userSpaceOnUse" x="0" y="0" width="29" height="28" fill="#000"><path fill="#fff" d="M0 0h29v28H0z"/><path d="M25.073 9.15a11.785 11.785 0 0 0-2.528-3.72 11.85 11.85 0 0 0-3.748-2.51A11.816 11.816 0 0 0 14.213 2c-1.625 0-3.174.328-4.584.92-1.409.593-2.68 1.45-3.748 2.51a11.721 11.721 0 0 0-2.528 3.72 11.564 11.564 0 0 0-.824 6.102 11.676 11.676 0 0 0 1.512 4.364l-.505 1.493-.507 1.492-.505 1.494-.507 1.493a.295.295 0 0 0-.01.17.287.287 0 0 0 .081.15c.016.015.032.027.05.039a.243.243 0 0 0 .054.029.421.421 0 0 0 .12.024l.024-.001.024-.003.024-.004.024-.007 1.556-.494 1.556-.495 1.557-.495 1.556-.494a11.861 11.861 0 0 0 5.58 1.39 11.792 11.792 0 0 0 8.332-3.43 11.749 11.749 0 0 0 2.528-3.719c.596-1.399.927-2.936.927-4.55 0-1.611-.33-3.149-.927-4.549Zm-4.724 7.662a4.041 4.041 0 0 1-.213.941 1.665 1.665 0 0 1-.379.576c-.17.179-.377.339-.592.476a3.94 3.94 0 0 1-.648.334 2.027 2.027 0 0 1-.544.146l-.02.002-.022.002-.023.003-.023.001-.104.011-.114.01a3.125 3.125 0 0 1-.126.006c-.042.001-.088.003-.136.003-.114 0-.25-.006-.417-.024a5.336 5.336 0 0 1-.596-.1 9.345 9.345 0 0 1-.828-.228c-.321-.103-.69-.235-1.112-.404a8.25 8.25 0 0 1-1.31-.674 10.31 10.31 0 0 1-1.273-.95c-.414-.36-.817-.76-1.202-1.198a14.83 14.83 0 0 1-1.103-1.422c-.007-.008-.012-.018-.017-.023l-.014-.021-.01-.016a7.225 7.225 0 0 1-.75-1.228 5.266 5.266 0 0 1-.332-.882 3.726 3.726 0 0 1-.138-.976c0-.37.045-.701.117-.993.072-.292.175-.544.29-.759.115-.216.243-.392.37-.53.125-.139.25-.243.353-.308.1-.063.228-.116.371-.163a4.49 4.49 0 0 1 .443-.115c.146-.03.286-.054.4-.07a2.796 2.796 0 0 1 .314-.031l.032-.001h.03c.086 0 .166.013.242.038a.713.713 0 0 1 .21.123c.064.055.124.123.18.205.056.083.106.183.153.295l.161.388.282.679.274.657c.078.183.131.31.142.33.012.025.032.062.05.11a.833.833 0 0 1 .054.399.827.827 0 0 1-.08.26l-.01.018-.01.02-.01.02-.01.019c-.019.039-.036.076-.055.11a1.634 1.634 0 0 1-.133.221c-.028.038-.059.08-.095.121l-.035.04a1.119 1.119 0 0 0-.072.085c-.01.014-.024.028-.036.043l-.074.09-.076.089-.075.084-.073.076-.028.028-.032.036a.287.287 0 0 0-.028.032.078.078 0 0 0-.014.025v.004l.003.013a.068.068 0 0 0 .01.022c.003.009.009.02.015.03.05.084.175.267.364.511.191.244.446.544.754.861.308.316.67.648 1.07.952a6.42 6.42 0 0 0 1.398.82c.037.016.081.032.12.05.04.016.078.029.106.041l.052.019c.006 0 .011-.003.016-.006.006-.002.011-.008.02-.013a.244.244 0 0 1 .018-.017l.016-.019.18-.208c.076-.087.164-.19.25-.296.088-.104.176-.212.252-.31.076-.097.142-.185.186-.249a.907.907 0 0 1 .265-.261.611.611 0 0 1 .325-.09.723.723 0 0 1 .21.03c.033.008.066.019.1.028.032.01.065.023.096.032.078.028.246.103.454.2a109.612 109.612 0 0 1 1.347.647c.176.085.295.142.305.148.058.028.111.054.163.081.05.027.097.052.14.081a.597.597 0 0 1 .21.208.662.662 0 0 1 .077.267c.014.113.014.245.002.388Z"/></mask><path d="M25.073 9.15a11.785 11.785 0 0 0-2.528-3.72 11.85 11.85 0 0 0-3.748-2.51A11.816 11.816 0 0 0 14.213 2c-1.625 0-3.174.328-4.584.92-1.409.593-2.68 1.45-3.748 2.51a11.721 11.721 0 0 0-2.528 3.72 11.564 11.564 0 0 0-.824 6.102 11.676 11.676 0 0 0 1.512 4.364l-.505 1.493-.507 1.492-.505 1.494-.507 1.493a.295.295 0 0 0-.01.17.287.287 0 0 0 .081.15c.016.015.032.027.05.039a.243.243 0 0 0 .054.029.421.421 0 0 0 .12.024l.024-.001.024-.003.024-.004.024-.007 1.556-.494 1.556-.495 1.557-.495 1.556-.494a11.861 11.861 0 0 0 5.58 1.39 11.792 11.792 0 0 0 8.332-3.43 11.749 11.749 0 0 0 2.528-3.719c.596-1.399.927-2.936.927-4.55 0-1.611-.33-3.149-.927-4.549Zm-4.724 7.662a4.041 4.041 0 0 1-.213.941 1.665 1.665 0 0 1-.379.576c-.17.179-.377.339-.592.476a3.94 3.94 0 0 1-.648.334 2.027 2.027 0 0 1-.544.146l-.02.002-.022.002-.023.003-.023.001-.104.011-.114.01a3.125 3.125 0 0 1-.126.006c-.042.001-.088.003-.136.003-.114 0-.25-.006-.417-.024a5.336 5.336 0 0 1-.596-.1 9.345 9.345 0 0 1-.828-.228c-.321-.103-.69-.235-1.112-.404a8.25 8.25 0 0 1-1.31-.674 10.31 10.31 0 0 1-1.273-.95c-.414-.36-.817-.76-1.202-1.198a14.83 14.83 0 0 1-1.103-1.422c-.007-.008-.012-.018-.017-.023l-.014-.021-.01-.016a7.225 7.225 0 0 1-.75-1.228 5.266 5.266 0 0 1-.332-.882 3.726 3.726 0 0 1-.138-.976c0-.37.045-.701.117-.993.072-.292.175-.544.29-.759.115-.216.243-.392.37-.53.125-.139.25-.243.353-.308.1-.063.228-.116.371-.163a4.49 4.49 0 0 1 .443-.115c.146-.03.286-.054.4-.07a2.796 2.796 0 0 1 .314-.031l.032-.001h.03c.086 0 .166.013.242.038a.713.713 0 0 1 .21.123c.064.055.124.123.18.205.056.083.106.183.153.295l.161.388.282.679.274.657c.078.183.131.31.142.33.012.025.032.062.05.11a.833.833 0 0 1 .054.399.827.827 0 0 1-.08.26l-.01.018-.01.02-.01.02-.01.019c-.019.039-.036.076-.055.11a1.634 1.634 0 0 1-.133.221c-.028.038-.059.08-.095.121l-.035.04a1.119 1.119 0 0 0-.072.085c-.01.014-.024.028-.036.043l-.074.09-.076.089-.075.084-.073.076-.028.028-.032.036a.287.287 0 0 0-.028.032.078.078 0 0 0-.014.025v.004l.003.013a.068.068 0 0 0 .01.022c.003.009.009.02.015.03.05.084.175.267.364.511.191.244.446.544.754.861.308.316.67.648 1.07.952a6.42 6.42 0 0 0 1.398.82c.037.016.081.032.12.05.04.016.078.029.106.041l.052.019c.006 0 .011-.003.016-.006.006-.002.011-.008.02-.013a.244.244 0 0 1 .018-.017l.016-.019.18-.208c.076-.087.164-.19.25-.296.088-.104.176-.212.252-.31.076-.097.142-.185.186-.249a.907.907 0 0 1 .265-.261.611.611 0 0 1 .325-.09.723.723 0 0 1 .21.03c.033.008.066.019.1.028.032.01.065.023.096.032.078.028.246.103.454.2a109.612 109.612 0 0 1 1.347.647c.176.085.295.142.305.148.058.028.111.054.163.081.05.027.097.052.14.081a.597.597 0 0 1 .21.208.662.662 0 0 1 .077.267c.014.113.014.245.002.388Z" fill="#43AD45"/><path d="M25.073 9.15a11.785 11.785 0 0 0-2.528-3.72 11.85 11.85 0 0 0-3.748-2.51A11.816 11.816 0 0 0 14.213 2c-1.625 0-3.174.328-4.584.92-1.409.593-2.68 1.45-3.748 2.51a11.721 11.721 0 0 0-2.528 3.72 11.564 11.564 0 0 0-.824 6.102 11.676 11.676 0 0 0 1.512 4.364l-.505 1.493-.507 1.492-.505 1.494-.507 1.493a.295.295 0 0 0-.01.17.287.287 0 0 0 .081.15c.016.015.032.027.05.039a.243.243 0 0 0 .054.029.421.421 0 0 0 .12.024l.024-.001.024-.003.024-.004.024-.007 1.556-.494 1.556-.495 1.557-.495 1.556-.494a11.861 11.861 0 0 0 5.58 1.39 11.792 11.792 0 0 0 8.332-3.43 11.749 11.749 0 0 0 2.528-3.719c.596-1.399.927-2.936.927-4.55 0-1.611-.33-3.149-.927-4.549Zm-4.724 7.662a4.041 4.041 0 0 1-.213.941 1.665 1.665 0 0 1-.379.576c-.17.179-.377.339-.592.476a3.94 3.94 0 0 1-.648.334 2.027 2.027 0 0 1-.544.146l-.02.002-.022.002-.023.003-.023.001-.104.011-.114.01a3.125 3.125 0 0 1-.126.006c-.042.001-.088.003-.136.003-.114 0-.25-.006-.417-.024a5.336 5.336 0 0 1-.596-.1 9.345 9.345 0 0 1-.828-.228c-.321-.103-.69-.235-1.112-.404a8.25 8.25 0 0 1-1.31-.674 10.31 10.31 0 0 1-1.273-.95c-.414-.36-.817-.76-1.202-1.198a14.83 14.83 0 0 1-1.103-1.422c-.007-.008-.012-.018-.017-.023l-.014-.021-.01-.016a7.225 7.225 0 0 1-.75-1.228 5.266 5.266 0 0 1-.332-.882 3.726 3.726 0 0 1-.138-.976c0-.37.045-.701.117-.993.072-.292.175-.544.29-.759.115-.216.243-.392.37-.53.125-.139.25-.243.353-.308.1-.063.228-.116.371-.163a4.49 4.49 0 0 1 .443-.115c.146-.03.286-.054.4-.07a2.796 2.796 0 0 1 .314-.031l.032-.001h.03c.086 0 .166.013.242.038a.713.713 0 0 1 .21.123c.064.055.124.123.18.205.056.083.106.183.153.295l.161.388.282.679.274.657c.078.183.131.31.142.33.012.025.032.062.05.11a.833.833 0 0 1 .054.399.827.827 0 0 1-.08.26l-.01.018-.01.02-.01.02-.01.019c-.019.039-.036.076-.055.11a1.634 1.634 0 0 1-.133.221c-.028.038-.059.08-.095.121l-.035.04a1.119 1.119 0 0 0-.072.085c-.01.014-.024.028-.036.043l-.074.09-.076.089-.075.084-.073.076-.028.028-.032.036a.287.287 0 0 0-.028.032.078.078 0 0 0-.014.025v.004l.003.013a.068.068 0 0 0 .01.022c.003.009.009.02.015.03.05.084.175.267.364.511.191.244.446.544.754.861.308.316.67.648 1.07.952a6.42 6.42 0 0 0 1.398.82c.037.016.081.032.12.05.04.016.078.029.106.041l.052.019c.006 0 .011-.003.016-.006.006-.002.011-.008.02-.013a.244.244 0 0 1 .018-.017l.016-.019.18-.208c.076-.087.164-.19.25-.296.088-.104.176-.212.252-.31.076-.097.142-.185.186-.249a.907.907 0 0 1 .265-.261.611.611 0 0 1 .325-.09.723.723 0 0 1 .21.03c.033.008.066.019.1.028.032.01.065.023.096.032.078.028.246.103.454.2a109.612 109.612 0 0 1 1.347.647c.176.085.295.142.305.148.058.028.111.054.163.081.05.027.097.052.14.081a.597.597 0 0 1 .21.208.662.662 0 0 1 .077.267c.014.113.014.245.002.388Z" stroke="#fff" stroke-width="4" mask="url(#b)"/></g><defs><clipPath id="a"><path fill="#fff" d="M0 0h28v28H0z"/></clipPath></defs></svg>